<svg xmlns="http://www.w3.org/2000/svg" viewBox="0 0 100 100">
  <path fill="white" transform="matrix(0.13972056 0 0 -0.13972056 1.58682635 81.46506986)" d="M347 13Q295 13 249.0 30.0Q203 47 169.0 76.5Q135 106 115.5 145.5Q96 185 96 230Q96 266 109.0 299.0Q122 332 145.5 359.0Q169 386 201.0 406.5Q233 427 271 437Q273 438 274.5 436.5Q276 435 274 433Q256 415 248.0 390.5Q240 366 245 339Q252 301 280.5 278.5Q309 256 347 256Q368 256 387.0 264.0Q406 272 420.0 286.0Q434 300 442.0 318.5Q450 337 450 359Q450 381 441.5 400.0Q433 419 419 433Q418 435 419.0 436.5Q420 438 422 437Q460 427 492.0 406.5Q524 386 547.5 359.0Q571 332 584.0 299.0Q597 266 597 230Q597 185 577.5 145.5Q558 106 524.0 76.5Q490 47 444.5 30.0Q399 13 347 13Z"/>
</svg>
